<?xml version="1.0" encoding="UTF-8" standalone="no"?>
<svg width="196px" height="215px" viewBox="0 0 196 215" version="1.1" xmlns="http://www.w3.org/2000/svg" xmlns:xlink="http://www.w3.org/1999/xlink">
    <!-- Generator: Sketch 3.7.2 (28276) - http://www.bohemiancoding.com/sketch -->
    <title>Illustration-box</title>
    <desc>Created with Sketch.</desc>
    <defs>
        <polygon id="path-1" points="2.413 14.6888 2.413 0.8078 0.4131 0.8078 0.4131 14.6888 2.413 14.6888"></polygon>
    </defs>
    <g id="Page-1" stroke="none" stroke-width="1" fill="none" fill-rule="evenodd">
        <g id="Try-Demo-Moto-HTML" transform="translate(-772.000000, -357.000000)">
            <g id="Illustration-box" transform="translate(772.000000, 356.000000)">
                <polygon id="Fill-1" fill="#1665C0" points="97.6441 94.4615 37.5461 124.2215 37.5461 185.4025 97.6441 162.5245 157.7421 185.4025 157.7421 124.2215"></polygon>
                <polygon id="Fill-2" fill="#2196F3" points="37.6089 124.2425 16.8499 104.0495 78.7829 74.6315 97.7069 94.4825"></polygon>
                <polygon id="Fill-3" fill="#64B5F7" points="157.8043 124.2425 178.5633 104.0495 116.6303 74.6315 97.7063 94.4825"></polygon>
                <g id="Group-37" transform="translate(0.000000, 0.184000)">
                    <path d="M117.1624,122.7138 C117.7584,121.7548 118.6104,120.8338 119.8484,119.9708 C125.4984,116.0308 129.9114,118.1508 130.6034,119.4978 C130.9584,120.1898 131.1364,120.9768 130.9074,121.7138 C130.6894,122.4188 130.0984,123.0788 128.9254,123.5648 C126.2914,124.6568 125.0074,126.4308 124.6524,129.0518 C124.3274,131.4538 124.7464,134.0538 125.3804,132.1998 C126.5814,128.6878 128.0784,127.7138 130.8764,126.9588 C133.2034,126.3308 135.9704,126.3288 139.2084,124.4478 C144.0634,121.6258 144.1944,117.5318 153.3494,109.3838 C161.7474,101.0358 166.9444,89.4898 166.9444,76.7328 C166.9444,51.2658 146.2334,30.6198 120.6854,30.6198 C101.3724,30.6198 84.8264,42.4198 77.8994,59.1808 L77.8974,59.1788 C76.2204,62.8758 74.4634,67.9258 71.3694,70.2908 C68.2764,72.6568 65.8014,75.8598 64.9274,80.9548 C64.0544,86.0498 61.4884,90.9178 57.5034,93.4748 C55.1334,94.9958 57.8304,94.2388 59.4684,93.4748 C61.1064,92.7108 63.7544,91.3548 66.2464,86.9868 C68.6204,82.8268 72.2224,84.0668 73.2624,84.9588 C74.5254,86.0418 75.9734,90.7548 70.9874,94.0298 C66.0014,97.3058 62.7654,99.8608 60.1964,102.7198 C57.5304,105.6858 56.5804,108.0058 56.1924,109.2068 C55.8054,110.4078 56.9204,109.1608 57.7574,108.3238 C58.5954,107.4868 63.5084,102.2738 70.0864,101.5638 C76.1374,100.9108 79.2034,107.3778 73.2804,110.5718 C67.5764,113.6468 64.4914,115.2398 62.1984,118.7338 C59.9054,122.2268 58.7404,128.5598 58.0494,132.0908 C57.3574,135.6208 56.8484,140.1518 52.3354,141.6438 C50.5514,142.2268 50.7704,142.7358 53.0624,142.2268 C55.3554,141.7168 60.3414,139.5548 61.9064,132.8948 C63.4714,126.2338 66.3454,122.3988 71.9554,124.0988 C78.0304,125.9398 75.5284,134.8668 71.7704,137.7318 C67.7124,140.8248 63.3624,143.6638 60.8154,147.7768 C58.5164,151.4878 57.6124,155.2738 58.0854,157.8578 C58.5584,160.4428 58.7044,153.6728 63.7264,149.4878 C68.9614,145.1258 74.9364,145.9568 81.0144,139.7338 C87.0924,133.5098 86.0374,126.5948 86.9104,122.7008 C87.5594,119.8088 88.3554,115.3228 91.8814,112.8148 C93.1044,111.9448 94.6524,111.3118 96.6394,111.0658 C102.2664,110.3718 102.0724,115.8858 100.1174,118.0448 C99.9154,118.2678 99.6934,118.4558 99.4574,118.5968 C96.9394,120.1028 92.3884,122.7188 92.1874,128.9608 C91.9694,135.7628 93.0154,143.4908 86.5734,148.0228 C81.7544,151.4128 82.5434,150.9428 83.3804,150.9428 C84.2174,150.9428 91.5144,151.1618 96.4094,140.0978 C97.6834,137.1858 98.5574,131.2168 102.8884,129.5068 C107.2194,127.7958 109.4394,131.5808 109.2204,133.0368 C109.0024,134.4928 107.1824,136.4218 105.3994,137.8048 C103.6164,139.1878 102.8884,141.5528 103.7984,143.9918 C104.0894,144.5378 104.0814,142.1468 105.9184,140.7738 C108.6754,138.7148 113.2064,139.0418 114.9444,134.3768 C116.3734,130.5398 114.9074,126.3438 117.1624,122.7138" id="Fill-4" fill="#AF1602"></path>
                    <path d="M48.1949,117.2593 C49.5009,116.6493 52.2079,116.9723 53.4089,115.7713 C54.6099,114.5703 54.9799,113.3163 55.0459,112.7103 C55.1089,112.1383 55.3779,111.8913 55.5179,112.6753 C55.6529,113.4313 56.4779,117.5263 52.9989,119.0343 C49.8179,120.4123 49.6139,119.2523 47.6759,120.6303 C46.0659,121.7763 46.5709,124.0423 46.1659,124.1203 C45.6889,124.2113 43.9909,119.2243 48.1949,117.2593" id="Fill-6" fill="#AF1602"></path>
                    <path d="M141.1038,66.9888 C136.0868,61.9718 131.2148,64.2028 131.2148,64.2028 C131.2148,64.2028 133.4458,59.3308 128.4288,54.3138 C123.4108,49.2958 117.4458,51.6698 114.3068,54.8088 C111.1668,57.9488 96.1888,72.9268 96.1888,72.9268 L103.5828,80.3208 C103.5828,80.3208 118.0448,65.7528 119.4348,64.3638 C120.8238,62.9738 121.9208,62.8538 122.6128,63.5458 C123.2288,64.1608 123.4068,65.1448 121.8628,66.6888 C120.3188,68.2328 105.9068,82.6448 105.9068,82.6448 L109.3398,86.0778 L112.7728,89.5108 C112.7728,89.5108 127.1838,75.0988 128.7288,73.5548 C130.2728,72.0108 131.2558,72.1888 131.8718,72.8038 C132.5628,73.4958 132.4428,74.5928 131.0538,75.9828 C129.6638,77.3728 115.0958,91.8348 115.0958,91.8348 L122.4908,99.2288 C122.4908,99.2288 137.4688,84.2508 140.6078,81.1108 C143.7478,77.9708 146.1208,72.0058 141.1038,66.9888" id="Fill-8" fill="#FBE9E7"></path>
                    <polygon id="Fill-10" fill="#2196F3" points="97.7066 215 37.6086 185.24 37.6086 124.059 97.7066 152.442"></polygon>
                    <polygon id="Fill-12" fill="#64B5F7" points="97.7066 215 157.8046 185.24 157.8046 124.059 97.7066 152.442"></polygon>
                    <polygon id="Fill-14" fill="#64B5F7" points="37.6089 124.0585 0.9999 128.7475 60.3579 158.5095 97.7069 152.4435"></polygon>
                    <polygon id="Fill-16" fill="#2196F3" points="157.8043 124.0585 194.4133 128.7475 135.0553 158.5095 97.7063 152.4435"></polygon>
                    <path d="M37.6089,106.5726 C37.0569,106.5726 36.6089,106.1256 36.6089,105.5726 L36.6089,77.1226 C36.6089,76.5696 37.0569,76.1226 37.6089,76.1226 C38.1609,76.1226 38.6089,76.5696 38.6089,77.1226 L38.6089,105.5726 C38.6089,106.1256 38.1609,106.5726 37.6089,106.5726" id="Fill-18" fill="#64B5F7"></path>
                    <path d="M176.6475,72.5247 C176.0955,72.5247 175.6475,72.0777 175.6475,71.5247 L175.6475,54.2597 C175.6475,53.7077 176.0955,53.2597 176.6475,53.2597 C177.1995,53.2597 177.6475,53.7077 177.6475,54.2597 L177.6475,71.5247 C177.6475,72.0777 177.1995,72.5247 176.6475,72.5247" id="Fill-20" fill="#64B5F7"></path>
                    <path d="M110.3555,19.9632 C109.8035,19.9632 109.3555,19.5162 109.3555,18.9632 L109.3555,1.8162 C109.3555,1.2632 109.8035,0.8162 110.3555,0.8162 C110.9075,0.8162 111.3555,1.2632 111.3555,1.8162 L111.3555,18.9632 C111.3555,19.5162 110.9075,19.9632 110.3555,19.9632" id="Fill-22" fill="#64B5F7"></path>
                    <path d="M132.6055,25.4398 C132.0535,25.4398 131.6055,24.9928 131.6055,24.4398 L131.6055,13.4868 C131.6055,12.9338 132.0535,12.4868 132.6055,12.4868 C133.1575,12.4868 133.6055,12.9338 133.6055,13.4868 L133.6055,24.4398 C133.6055,24.9928 133.1575,25.4398 132.6055,25.4398" id="Fill-24" fill="#64B5F7"></path>
                    <path d="M83.6055,33.2269 C83.0535,33.2269 82.6055,32.7799 82.6055,32.2269 L82.6055,26.7499 C82.6055,26.1979 83.0535,25.7499 83.6055,25.7499 C84.1575,25.7499 84.6055,26.1979 84.6055,26.7499 L84.6055,32.2269 C84.6055,32.7799 84.1575,33.2269 83.6055,33.2269" id="Fill-26" fill="#64B5F7"></path>
                    <path d="M1,141.7025 C0.448,141.7025 0,141.2555 0,140.7025 L0,135.2255 C0,134.6735 0.448,134.2255 1,134.2255 C1.552,134.2255 2,134.6735 2,135.2255 L2,140.7025 C2,141.2555 1.552,141.7025 1,141.7025" id="Fill-28" fill="#64B5F7"></path>
                    <g id="Group-32" transform="translate(193.000000, 134.000000)">
                        <mask id="mask-2" fill="white">
                            <use xlink:href="#path-1"></use>
                        </mask>
                        <g id="Clip-31"></g>
                        <path d="M1.4131,14.6888 C0.8611,14.6888 0.4131,14.2418 0.4131,13.6888 L0.4131,1.8078 C0.4131,1.2548 0.8611,0.8078 1.4131,0.8078 C1.9651,0.8078 2.4131,1.2548 2.4131,1.8078 L2.4131,13.6888 C2.4131,14.2418 1.9651,14.6888 1.4131,14.6888" id="Fill-30" fill="#64B5F7" mask="url(#mask-2)"></path>
                    </g>
                    <path d="M111.9883,37.6995 C111.3543,37.6995 110.7653,37.2955 110.5613,36.6585 C110.3073,35.8705 110.7403,35.0245 111.5293,34.7715 C114.7663,33.7295 117.8363,33.3625 121.7933,33.5215 C122.6203,33.5565 123.2633,34.2555 123.2293,35.0835 C123.1943,35.9105 122.5003,36.5425 121.6683,36.5195 C118.0843,36.3645 115.3273,36.7015 112.4483,37.6275 C112.2953,37.6775 112.1403,37.6995 111.9883,37.6995" id="Fill-33" fill="#FBE9E7"></path>
                    <path d="M82.5962,61.8324 C82.4052,61.8324 82.2092,61.7954 82.0212,61.7174 C81.2572,61.3994 80.8942,60.5234 81.2112,59.7594 C81.4662,59.1444 87.6422,44.6194 104.4072,37.2054 C105.1622,36.8704 106.0502,37.2124 106.3852,37.9714 C106.7202,38.7284 106.3772,39.6144 105.6192,39.9494 C89.9922,46.8594 84.0402,60.7704 83.9822,60.9094 C83.7422,61.4844 83.1842,61.8324 82.5962,61.8324" id="Fill-35" fill="#FBE9E7"></path>
                </g>
            </g>
        </g>
    </g>
</svg>